<?xml version="1.0" encoding="UTF-8"?>
<svg id="Layer_2" data-name="Layer 2" xmlns="http://www.w3.org/2000/svg" viewBox="0 0 1000 1000">
  <defs>
    <style>
      .cls-1 {
        fill: #f3ea1b;
      }

      .cls-2 {
        fill: #d51f1e;
      }
    </style>
  </defs>
  <path class="cls-2" d="M914.56,23.44H85.44s-20.98,650.49,411.04,950.64c0,0,2.32,1.66,3.52,2.47l3.52-2.47C935.54,673.94,914.56,23.44,914.56,23.44Z"/>
  <g>
    <path class="cls-1" d="M740.92,422.33h-16.49v-64.41h-47.99v-133.41c2.27,1.67,4.44,3.37,6.5,5.09,1.63,1.37,3.62,2.05,5.61,2.05,2.49,0,4.96-1.06,6.68-3.12,3.11-3.69,2.62-9.2-1.07-12.3-6.5-5.46-13.91-10.66-22-15.45-9.13-5.43-19.34-10.46-30.34-14.95-23.14-9.46-49.2-16.4-77.5-20.65l-.62-.33h-.03c-5.04-2.57-10.28-4.84-15.64-6.79v-13.4c0-12.83-5-24.9-14.07-33.96-9.06-9.07-21.13-14.07-33.96-14.07-26.48,0-48.03,21.54-48.03,48.03v13.4c-5.36,1.94-10.6,4.22-15.64,6.79l-.62.31c-28.31,4.25-54.4,11.19-77.55,20.66-10.95,4.47-21.15,9.5-30.33,14.94-8.18,4.86-15.58,10.06-22.01,15.47-3.69,3.11-4.17,8.62-1.06,12.31,1.72,2.05,4.2,3.11,6.68,3.11,1.99,0,3.98-.68,5.62-2.05,2.04-1.72,4.22-3.42,6.49-5.1v133.43h-48v64.41h-16.48c-4.82,0-8.73,3.91-8.73,8.73v93.06c0,4.82,3.91,8.73,8.73,8.73h50.32l-10.82,90.22c-.47,3.9,1.74,7.64,5.37,9.12l50.87,20.8-49.54,58.65h83.22v-17.47h-45.6l28.92-34.24,124.88,51.05c1.06.43,2.19.65,3.31.65s2.25-.22,3.31-.65l124.88-51.05,28.92,34.24h-45.6v17.47h83.22l-49.54-58.65,50.86-20.8c3.63-1.48,5.83-5.22,5.37-9.12l-10.81-90.22h50.32c4.82,0,8.73-3.91,8.73-8.73v-93.06c0-4.82-3.91-8.73-8.73-8.73ZM706.96,375.38v14.74h-81.87v-14.74h81.87ZM706.96,407.59v14.73h-81.87v-14.73h81.87ZM635.21,201.98c8.51,3.48,16.47,7.29,23.76,11.35v144.58h-35.81c11.1-20.1,17.42-43.18,17.42-67.72,0-38.38-15.5-74.27-42.05-100.29,12.96,3.35,25.22,7.4,36.68,12.08ZM500,131.79c12.44,0,22.51,10.09,22.51,22.52s-10.07,22.51-22.51,22.51-22.51-10.09-22.51-22.51,10.07-22.52,22.51-22.52ZM500,209.31c44.6,0,80.88,36.28,80.88,80.88s-36.28,80.88-80.88,80.88-80.88-36.28-80.88-80.88,36.28-80.88,80.88-80.88ZM441.36,181.92l1.19-.63c3.06-1.63,6.22-3.11,9.42-4.47v27.59c-30,16.86-50.32,48.98-50.32,85.78,0,54.23,44.11,98.35,98.35,98.35s98.35-44.11,98.35-98.35c0-36.8-20.32-68.92-50.32-85.78v-27.59c3.2,1.36,6.36,2.84,9.42,4.47l.91.48c39.97,21.54,64.75,62.99,64.75,108.42,0,67.88-55.22,123.11-123.11,123.11s-123.11-55.22-123.11-123.11c0-45.33,24.67-86.69,64.47-108.27ZM607.62,380.53v41.8h-59.61c23.38-8.52,43.88-23.09,59.61-41.8ZM452,422.33h-59.63v-41.81c15.73,18.71,36.24,33.28,59.63,41.81ZM341.04,213.33c7.3-4.08,15.27-7.88,23.75-11.35,11.47-4.68,23.73-8.72,36.7-12.09-26.54,26.04-42.05,61.92-42.05,100.3,0,24.54,6.32,47.62,17.42,67.72h-35.81v-144.58ZM293.03,375.38h81.87v14.74h-81.87v-14.74ZM293.03,407.59h81.87v14.73h-81.87v-14.73ZM732.18,515.39h-51.43c-2.49,0-4.88,1.07-6.53,2.93-1.65,1.88-2.43,4.36-2.14,6.84l11.18,93.39-33.56,13.72v-117.26h-17.47v124.41l-17.77,7.27v-131.68h-17.47v138.82l-17.77,7.27v-146.08h-17.47v153.22l-17.77,7.27v-160.49h-17.47v167.63l-17.77,7.27v-174.9h-17.47v174.9l-17.77-7.27v-167.63h-17.47v160.49l-17.77-7.27v-153.22h-17.47v146.08l-17.77-7.27v-138.82h-17.47v131.68l-17.77-7.27v-124.41h-17.47v117.27l-33.57-13.73,11.19-93.39c.29-2.48-.49-4.96-2.14-6.84-1.65-1.86-4.04-2.93-6.53-2.93h-51.43v-29.07h464.36v29.07ZM732.18,468.85h-464.36v-29.06h464.36v29.06Z"/>
    <path class="cls-1" d="M500,346.33c30.95,0,56.13-25.18,56.13-56.13s-25.18-56.12-56.13-56.12-56.13,25.18-56.13,56.12,25.18,56.13,56.13,56.13ZM500,251.54c21.31,0,38.66,17.34,38.66,38.65s-17.35,38.66-38.66,38.66-38.66-17.35-38.66-38.66,17.35-38.65,38.66-38.65Z"/>
  </g>
</svg>